<svg width="28" height="25" viewBox="0 0 28 25" fill="none" xmlns="http://www.w3.org/2000/svg">
<path d="M20.45 2C21.1781 1.99939 21.899 2.14413 22.5704 2.42575C23.2418 2.70736 23.8502 3.12018 24.36 3.64C25.4104 4.70638 25.9992 6.14316 25.9992 7.64C25.9992 9.13685 25.4104 10.5736 24.36 11.64L14 22.13L3.64002 11.64C2.5896 10.5736 2.00081 9.13685 2.00081 7.64C2.00081 6.14316 2.5896 4.70638 3.64002 3.64C4.15011 3.12055 4.7586 2.70795 5.42993 2.42629C6.10127 2.14464 6.82199 1.99957 7.55002 1.99957C8.27804 1.99957 8.99877 2.14464 9.67011 2.42629C10.3414 2.70795 10.9499 3.12055 11.46 3.64L14 6.24L16.53 3.66C17.0383 3.13399 17.6474 2.71586 18.3209 2.43064C18.9944 2.14542 19.7186 1.99895 20.45 2ZM20.45 2.68285e-06C19.4556 -0.000840038 18.4711 0.196858 17.5541 0.581505C16.6372 0.966151 15.8062 1.53 15.11 2.24L14 3.36L12.89 2.24C12.193 1.53129 11.3618 0.968412 10.445 0.584193C9.5282 0.199974 8.54408 0.00209743 7.55002 0.00209743C6.55596 0.00209743 5.57184 0.199974 4.65503 0.584193C3.73822 0.968412 2.90707 1.53129 2.21002 2.24C0.791898 3.68363 -0.00268555 5.62636 -0.00268555 7.65C-0.00268555 9.67364 0.791898 11.6164 2.21002 13.06L14 25L25.79 13.06C27.2081 11.6164 28.0027 9.67364 28.0027 7.65C28.0027 5.62636 27.2081 3.68363 25.79 2.24C25.0928 1.53136 24.2617 0.96839 23.3449 0.58384C22.4282 0.199291 21.4441 0.000831597 20.45 2.68285e-06Z" fill="#323232"/>
</svg>
